<?xml version="1.0" standalone="no"?>
<!DOCTYPE svg PUBLIC "-//W3C//DTD SVG 20010904//EN"
 "http://www.w3.org/TR/2001/REC-SVG-20010904/DTD/svg10.dtd">
<svg version="1.0" xmlns="http://www.w3.org/2000/svg"
 width="260.000000pt" height="260.000000pt" viewBox="0 0 260.000000 260.000000"
 preserveAspectRatio="xMidYMid meet">
<metadata>
Created by potrace 1.11, written by Peter Selinger 2001-2013
</metadata>
<g transform="translate(0.000000,260.000000) scale(0.100000,-0.100000)"
fill="#000000" stroke="none">
<path d="M10 2183 c0 -5 5 -24 10 -43 11 -36 45 -192 55 -245 2 -16 7 -39 9
-50 3 -18 19 -125 31 -210 25 -183 25 -587 0 -710 -2 -11 -7 -39 -9 -63 -3
-24 -13 -84 -21 -135 -14 -78 -26 -136 -70 -324 -5 -23 -5 -23 124 -23 l129 0
11 32 c13 43 67 309 76 373 3 28 10 77 15 110 16 99 24 223 25 347 0 65 1 118
3 118 8 0 229 -508 382 -878 l42 -102 130 0 129 0 -4 28 c-5 31 -25 134 -32
172 -3 14 -7 41 -10 60 -3 19 -7 44 -9 55 -4 21 -11 72 -22 170 -3 33 -8 68
-10 78 -10 59 -21 403 -13 412 3 2 16 -17 29 -43 20 -39 102 -169 131 -207 84
-111 221 -249 340 -343 229 -181 543 -318 812 -357 27 -3 58 -8 69 -10 45 -9
228 -17 228 -10 0 4 -7 35 -16 69 -9 33 -18 70 -20 81 -11 56 -16 81 -20 95
-3 11 -20 16 -64 17 -81 2 -254 38 -364 74 -449 148 -812 501 -970 946 -57
158 -80 275 -91 453 -2 30 -4 58 -4 63 -1 4 -59 7 -131 7 -128 0 -130 0 -131
-22 0 -13 -2 -32 -4 -43 -2 -11 -7 -47 -10 -80 -4 -33 -8 -71 -10 -85 -2 -14
-6 -59 -10 -100 -3 -41 -8 -95 -10 -120 -7 -63 -15 -248 -17 -355 l-1 -90 -19
45 c-58 136 -245 515 -346 700 -26 47 -54 99 -63 115 l-16 30 -132 3 c-72 1
-131 -1 -131 -5z"/>
<path d="M1304 2095 c12 -169 50 -312 126 -470 189 -394 575 -669 1009 -719
l54 -6 -7 41 c-4 23 -9 74 -12 113 -9 122 0 112 -109 129 -96 15 -283 100
-381 173 -178 133 -296 295 -369 507 l-24 67 341 0 341 0 -7 -32 c-4 -18 -9
-40 -11 -48 -1 -8 -6 -37 -9 -65 -4 -27 -9 -65 -12 -82 l-6 -33 131 0 c72 0
131 3 131 8 0 23 53 306 75 397 14 59 25 109 25 111 0 2 -291 4 -646 4 l-647
0 7 -95z"/>
</g>
</svg>
